<svg viewBox="0 0 680 380" xmlns="http://www.w3.org/2000/svg" style="width: 100%; background: #faf9f6;">
<g transform="translate(340, 165)">
  <path fill="none" stroke="#0a0a0a" stroke-width="0.5" d="M0,0 C0,-14 -10,-22 -22,-22 C -34,-22 -44,-12 -44,0 C -44,12 -34,22 -22,22 C -10,22 0,14 0,0 C0,-14 10,-22 22,-22 C 34,-22 44,-12 44,0 C 44,12 34,22 22,22 C 10,22 0,14 0,0 Z"></path>
  <path fill="none" stroke="#0a0a0a" stroke-width="0.55" d="M0,0 C0,-20 -14,-32 -30,-32 C -46,-32 -58,-18 -58,0 C -58,18 -46,32 -30,32 C -14,32 0,20 0,0 C0,-20 14,-32 30,-32 C 46,-32 58,-18 58,0 C 58,18 46,32 30,32 C 14,32 0,20 0,0 Z"></path>
  <path fill="none" stroke="#0a0a0a" stroke-width="0.6" d="M0,0 C0,-26 -18,-42 -38,-42 C -58,-42 -72,-26 -72,0 C -72,26 -58,42 -38,42 C -18,42 0,26 0,0 C0,-26 18,-42 38,-42 C 58,-42 72,-26 72,0 C 72,26 58,42 38,42 C 18,42 0,26 0,0 Z"></path>
  <path fill="none" stroke="#0a0a0a" stroke-width="0.65" d="M0,0 C0,-32 -22,-52 -46,-52 C -70,-52 -86,-32 -86,0 C -86,32 -70,52 -46,52 C -22,52 0,32 0,0 C0,-32 22,-52 46,-52 C 70,-52 86,-32 86,0 C 86,32 70,52 46,52 C 22,52 0,32 0,0 Z"></path>
  <path fill="none" stroke="#0a0a0a" stroke-width="0.7" d="M0,0 C0,-38 -26,-62 -54,-62 C -82,-62 -100,-38 -100,0 C -100,38 -82,62 -54,62 C -26,62 0,38 0,0 C0,-38 26,-62 54,-62 C 82,-62 100,-38 100,0 C 100,38 82,62 54,62 C 26,62 0,38 0,0 Z"></path>
  <path fill="none" stroke="#0a0a0a" stroke-width="0.75" d="M0,0 C0,-44 -30,-72 -62,-72 C -94,-72 -114,-44 -114,0 C -114,44 -94,72 -62,72 C -30,72 0,44 0,0 C0,-44 30,-72 62,-72 C 94,-72 114,-44 114,0 C 114,44 94,72 62,72 C 30,72 0,44 0,0 Z"></path>
  <path fill="none" stroke="#0a0a0a" stroke-width="0.8" d="M0,0 C0,-50 -34,-82 -70,-82 C -106,-82 -128,-50 -128,0 C -128,50 -106,82 -70,82 C -34,82 0,50 0,0 C0,-50 34,-82 70,-82 C 106,-82 128,-50 128,0 C 128,50 106,82 70,82 C 34,82 0,50 0,0 Z"></path>
  <path fill="none" stroke="#0a0a0a" stroke-width="0.85" d="M0,0 C0,-56 -38,-92 -78,-92 C -118,-92 -142,-56 -142,0 C -142,56 -118,92 -78,92 C -38,92 0,56 0,0 C0,-56 38,-92 78,-92 C 118,-92 142,-56 142,0 C 142,56 118,92 78,92 C 38,92 0,56 0,0 Z"></path>
  <path fill="none" stroke="#0a0a0a" stroke-width="0.9" d="M0,0 C0,-62 -42,-102 -86,-102 C -130,-102 -156,-62 -156,0 C -156,62 -130,102 -86,102 C -42,102 0,62 0,0 C0,-62 42,-102 86,-102 C 130,-102 156,-62 156,0 C 156,62 130,102 86,102 C 42,102 0,62 0,0 Z"></path>
  <path fill="none" stroke="#0a0a0a" stroke-width="0.95" d="M0,0 C0,-68 -46,-112 -94,-112 C -142,-112 -168,-68 -168,0 C -168,68 -142,112 -94,112 C -46,112 0,68 0,0 C0,-68 46,-112 94,-112 C 142,-112 168,-68 168,0 C 168,68 142,112 94,112 C 46,112 0,68 0,0 Z"></path>
  <path fill="none" stroke="#0a0a0a" stroke-width="1.0" d="M0,0 C0,-74 -50,-120 -102,-120 C -154,-120 -180,-74 -180,0 C -180,74 -154,120 -102,120 C -50,120 0,74 0,0 C0,-74 50,-120 102,-120 C 154,-120 180,-74 180,0 C 180,74 154,120 102,120 C 50,120 0,74 0,0 Z"></path>
  <path fill="none" stroke="#0a0a0a" stroke-width="1.1" d="M0,0 C0,-80 -54,-128 -108,-128 C -162,-128 -190,-80 -190,0 C -190,80 -162,128 -108,128 C -54,128 0,80 0,0 C0,-80 54,-128 108,-128 C 162,-128 190,-80 190,0 C 190,80 162,128 108,128 C 54,128 0,80 0,0 Z"></path>
  <path fill="none" stroke="#0a0a0a" stroke-width="1.2" d="M0,0 C0,-86 -58,-136 -114,-136 C -170,-136 -200,-86 -200,0 C -200,86 -170,136 -114,136 C -58,136 0,86 0,0 C0,-86 58,-136 114,-136 C 170,-136 200,-86 200,0 C 200,86 170,136 114,136 C 58,136 0,86 0,0 Z"></path>
  <text x="0" y="168" font-family="Cormorant Garamond, Georgia, serif" font-style="italic" font-weight="300" font-size="14" fill="#0a0a0a" letter-spacing="2" text-anchor="middle">Looking for Brazilian Jiu-Jitsu</text>
</g>
</svg>