<svg viewBox="0 0 420 280" xmlns="http://www.w3.org/2000/svg" style="background: #0a0a0a;">
<g transform="translate(210, 140)">
  <path fill="none" stroke="#faf9f6" stroke-width="0.5" d="M0,0 C0,-14 -10,-22 -22,-22 C -34,-22 -44,-12 -44,0 C -44,12 -34,22 -22,22 C -10,22 0,14 0,0 C0,-14 10,-22 22,-22 C 34,-22 44,-12 44,0 C 44,12 34,22 22,22 C 10,22 0,14 0,0 Z"></path>
  <path fill="none" stroke="#faf9f6" stroke-width="0.6" d="M0,0 C0,-26 -18,-42 -38,-42 C -58,-42 -72,-26 -72,0 C -72,26 -58,42 -38,42 C -18,42 0,26 0,0 C0,-26 18,-42 38,-42 C 58,-42 72,-26 72,0 C 72,26 58,42 38,42 C 18,42 0,26 0,0 Z"></path>
  <path fill="none" stroke="#faf9f6" stroke-width="0.7" d="M0,0 C0,-38 -26,-62 -54,-62 C -82,-62 -100,-38 -100,0 C -100,38 -82,62 -54,62 C -26,62 0,38 0,0 C0,-38 26,-62 54,-62 C 82,-62 100,-38 100,0 C 100,38 82,62 54,62 C 26,62 0,38 0,0 Z"></path>
  <path fill="none" stroke="#faf9f6" stroke-width="0.8" d="M0,0 C0,-50 -34,-82 -70,-82 C -106,-82 -128,-50 -128,0 C -128,50 -106,82 -70,82 C -34,82 0,50 0,0 C0,-50 34,-82 70,-82 C 106,-82 128,-50 128,0 C 128,50 106,82 70,82 C 34,82 0,50 0,0 Z"></path>
  <path fill="none" stroke="#faf9f6" stroke-width="0.9" d="M0,0 C0,-62 -42,-102 -86,-102 C -130,-102 -156,-62 -156,0 C -156,62 -130,102 -86,102 C -42,102 0,62 0,0 C0,-62 42,-102 86,-102 C 130,-102 156,-62 156,0 C 156,62 130,102 86,102 C 42,102 0,62 0,0 Z"></path>
  <path fill="none" stroke="#faf9f6" stroke-width="1.0" d="M0,0 C0,-74 -50,-120 -102,-120 C -154,-120 -180,-74 -180,0 C -180,74 -154,120 -102,120 C -50,120 0,74 0,0 C0,-74 50,-120 102,-120 C 154,-120 180,-74 180,0 C 180,74 154,120 102,120 C 50,120 0,74 0,0 Z"></path>
</g>
</svg>